<svg width="40" height="36" viewBox="0 0 40 36" fill="none" xmlns="http://www.w3.org/2000/svg">
<path d="M10.05 28.836C9.58333 28.836 9.125 28.6258 8.675 28.2053C8.225 27.7847 8 27.3642 8 26.9437V22.5282H33V7.20901H38C38.4667 7.20901 38.9167 7.41927 39.35 7.8398C39.7833 8.26033 40 8.69587 40 9.14643V36L32.05 28.836H10.05ZM0 27.0338V1.89237C0 1.47184 0.216667 1.05131 0.65 0.630789C1.08333 0.210263 1.53333 0 2 0H27.95C28.45 0 28.9167 0.202753 29.35 0.60826C29.7833 1.01377 30 1.4418 30 1.89237V17.9324C30 18.3529 29.7833 18.7735 29.35 19.194C28.9167 19.6145 28.45 19.8248 27.95 19.8248H8L0 27.0338ZM27 17.1214V2.70338H3V20.7259L6.7 17.1214H27Z" fill="black"/>
</svg>
