<svg width="614" height="710" viewBox="0 0 614 710" fill="none" xmlns="http://www.w3.org/2000/svg">
<path d="M134.8 152.933C128.533 153.733 118.533 161.2 114.666 168.133L111.333 174L110.933 358.667C110.666 491.6 110.933 544.8 112 548.8C112.933 551.733 115.866 556.933 118.666 560.267C128.4 571.6 114.4 570.667 282.666 570.667H432.133L438 567.333C444.133 563.6 448.8 558.267 452.4 550.4C454.533 546 454.666 533.6 454.666 395.2V244.8L408.266 198.4L362 152L250.666 152.267C189.466 152.267 137.333 152.667 134.8 152.933ZM350.4 165.6C351.6 166.8 352 175.333 352 195.733C352 219.467 352.4 225.467 354.4 230.933C356.933 238.267 363.733 246.133 372 251.333C373.066 252.133 389.066 252.933 407.333 253.333L440.666 254L441.066 400.4L441.333 546.8L436.133 552.4L430.8 558H283.066H135.333L131.333 554.933C129.2 553.2 126.266 550.133 125.066 548.267C122.8 544.933 122.666 534.267 122.666 361.733V178.933L127.066 173.2C130 169.2 133.066 166.933 136.666 165.733C144.4 163.467 348.133 163.333 350.4 165.6ZM404.8 213.333C417.6 226.133 428 237.467 428 238.267C428 240.667 382.666 240.533 376 238.267C372.933 237.2 370.4 234.933 368.4 231.333C365.6 226.4 365.333 224.4 365.333 201.867C365.333 188.667 365.733 177.333 366.266 176.8C367.333 175.867 372.266 180.533 404.8 213.333Z" fill="black"/>
<path d="M225.866 374.133C213.466 384.533 208.266 387.067 192.666 390.133C186.266 391.333 180.266 393.2 179.2 394.267C174.933 398.533 178.533 405.333 185.066 405.333C191.2 405.333 213.6 398.667 219.733 395.2C222.933 393.333 229.733 388.133 234.8 383.867C242 377.6 244 375.067 244 372.267C244 368 241.866 365.333 238.533 365.333C237.333 365.333 231.6 369.333 225.866 374.133Z" fill="black"/>
<path d="M324.266 366.933C323.333 367.867 322.666 370.133 322.666 372.133C322.666 374.933 324.799 377.467 332.399 384C345.733 395.333 351.066 398.267 365.999 402C385.466 406.933 389.999 406.133 389.066 397.733C388.666 393.6 387.333 393.067 368.933 388.8C356.533 386 352.399 383.733 340.799 373.867C330.799 365.333 327.333 363.867 324.266 366.933Z" fill="black"/>
<path d="M378.933 411.867C378.133 412.4 374.266 419.333 370.4 427.333C364.4 439.867 363.466 443.2 363.333 450C363.333 456.8 363.866 458.8 367.066 462.933C372.266 469.733 378.933 472.8 384.133 470.667C388.933 468.667 395.6 461.2 396.8 456.533C398.266 450.667 396.133 441.467 389.866 426.667C384 412.667 382 409.867 378.933 411.867ZM388.133 443.067C391.066 451.867 390.666 454.933 385.6 460.267C381.2 465.067 379.866 464.933 374.666 459.733C370.8 456 370.4 454.933 370.933 449.333C371.333 446 373.6 438.8 376 433.467L380.533 423.6L383.066 429.467C384.4 432.667 386.666 438.8 388.133 443.067Z" fill="black"/>
<path d="M184.8 416.267C181.6 421.467 173.067 444.133 172.4 449.467C171.467 456.4 172.667 460.533 177.333 465.867C183.333 472.533 188 474.133 194 471.2C200 468.4 205.2 461.733 206.267 455.467C207.333 448.933 205.067 441.067 197.867 426.133C191.333 412.533 188.533 410.4 184.8 416.267ZM194.533 436.933C200 449.467 200 456.133 194.8 461.467C189.867 466.267 188.133 466.267 183.467 461.467C180.133 458 179.733 456.8 180.267 451.067C181.067 443.867 188.133 424.8 189.467 426.4C190 426.933 192.267 431.6 194.533 436.933Z" fill="black"/>
<path d="M274.533 435.2C267.866 437.467 263.2 441.333 255.733 450.4C248.533 458.933 247.333 464 252.533 464C254.533 464 256.533 462.667 258 460.4C262.4 453.733 271.333 444.933 275.6 443.2C281.866 440.533 296.933 440.8 302.666 443.733C305.2 444.933 310.266 449.733 314 454.267C320.666 462.4 325.6 464.8 327.066 460.667C328.666 456.8 312 438.933 303.733 435.467C297.6 432.933 281.333 432.8 274.533 435.2Z" fill="black"/>
</svg>
