<svg width="20" height="26" viewBox="0 0 20 26" fill="none" xmlns="http://www.w3.org/2000/svg">
<path d="M2.28125 26C1.79141 26 1.37207 25.8182 1.02324 25.4545C0.674414 25.0908 0.5 24.6536 0.5 24.1429V10.7095C0.5 10.1988 0.674414 9.76161 1.02324 9.39792C1.37207 9.03423 1.79141 8.85238 2.28125 8.85238H4.35938V5.88095C4.35938 4.25389 4.90964 2.86696 6.01018 1.72018C7.11071 0.573393 8.4417 0 10.0031 0C11.5646 0 12.8945 0.573393 13.993 1.72018C15.0914 2.86696 15.6406 4.25389 15.6406 5.88095V8.85238H17.7188C18.2086 8.85238 18.6279 9.03423 18.9768 9.39792C19.3256 9.76161 19.5 10.1988 19.5 10.7095V24.1429C19.5 24.6536 19.3256 25.0908 18.9768 25.4545C18.6279 25.8182 18.2086 26 17.7188 26H2.28125ZM2.28125 24.1429H17.7188V10.7095H2.28125V24.1429ZM6.14062 8.85238H13.8594V5.88095C13.8594 4.76322 13.4845 3.81316 12.7348 3.03076C11.985 2.24835 11.0746 1.85714 10.0035 1.85714C8.93242 1.85714 8.02083 2.24835 7.26875 3.03076C6.51667 3.81316 6.14062 4.76322 6.14062 5.88095V8.85238Z" fill="black"/>
</svg>
