<?xml version="1.0" standalone="no"?>
<!DOCTYPE svg PUBLIC "-//W3C//DTD SVG 20010904//EN"
 "http://www.w3.org/TR/2001/REC-SVG-20010904/DTD/svg10.dtd">
<svg version="1.0" xmlns="http://www.w3.org/2000/svg"
 width="2136.000000pt" height="2467.000000pt" viewBox="0 0 2136.000000 2467.000000"
 preserveAspectRatio="xMidYMid meet">

<g transform="translate(0.000000,2467.000000) scale(0.100000,-0.100000)"
fill="#000000" stroke="none">
<path d="M5858 18255 c-20 -7 -97 -21 -170 -30 -166 -20 -193 -28 -243 -75
-22 -21 -62 -47 -90 -59 -27 -12 -69 -41 -91 -64 -23 -23 -57 -56 -75 -73 -65
-58 -119 -135 -135 -193 -19 -65 -43 -119 -61 -142 -8 -9 -24 -47 -36 -85
l-22 -69 -3 -5225 c-2 -3626 1 -5250 8 -5306 11 -87 35 -169 55 -194 7 -8 23
-40 35 -70 38 -96 54 -123 86 -142 20 -12 37 -34 48 -62 22 -58 136 -171 201
-201 28 -12 61 -35 75 -50 38 -41 68 -53 173 -64 132 -15 8534 -15 8627 -1 92
15 96 17 151 66 27 24 57 44 66 44 8 0 44 14 80 32 57 28 69 40 120 115 31 46
66 91 79 100 14 8 40 50 60 92 20 42 44 85 55 96 30 34 49 101 59 224 7 78 10
1502 8 4371 -3 3974 -4 4257 -20 4286 -9 17 -33 43 -52 58 -19 14 -43 43 -52
62 -11 23 -37 49 -71 71 -29 18 -53 39 -53 46 0 19 -42 64 -79 84 -19 11 -43
35 -54 54 -23 43 -33 53 -77 76 -19 11 -45 37 -57 59 -12 22 -40 50 -64 64
-24 14 -52 43 -65 65 -13 23 -40 51 -65 66 -26 15 -52 41 -64 63 -11 22 -37
48 -62 62 -24 15 -53 43 -68 70 -16 27 -41 52 -65 64 -26 13 -47 34 -60 60
-12 24 -37 49 -64 65 -27 16 -55 44 -71 71 -16 27 -41 52 -64 64 -24 12 -49
36 -65 65 -17 28 -41 52 -66 65 -24 12 -47 36 -62 61 -13 24 -40 51 -65 66
-25 14 -52 42 -65 65 -13 23 -41 51 -66 65 -26 15 -51 40 -62 64 -13 24 -37
48 -65 64 -26 16 -54 43 -67 67 -13 24 -40 50 -63 63 -23 12 -50 40 -65 64
-14 25 -42 53 -65 65 -23 13 -50 41 -65 65 -14 25 -42 53 -65 65 -22 13 -51
41 -65 65 -14 24 -42 52 -64 64 -22 12 -48 38 -59 57 -23 44 -33 54 -76 77
-19 11 -45 37 -57 59 -12 21 -40 50 -63 64 -23 14 -54 45 -69 70 -32 50 -49
61 -137 87 -57 17 -223 18 -3180 20 -2612 1 -3126 -1 -3157 -12z m6013 -461
l24 -26 5 -851 c6 -940 2 -881 70 -987 16 -25 39 -81 52 -124 15 -53 33 -91
55 -115 18 -20 55 -69 83 -109 54 -77 95 -109 176 -136 32 -10 59 -27 73 -46
35 -48 65 -61 204 -93 l132 -31 850 -5 849 -6 18 -45 c16 -42 17 -287 17
-4130 0 -2315 -3 -4115 -9 -4154 -7 -58 -13 -74 -43 -105 -19 -20 -42 -50 -51
-68 -8 -17 -30 -42 -47 -55 -18 -12 -53 -45 -79 -72 -45 -47 -52 -50 -127 -62
-63 -10 -892 -13 -4206 -13 -4084 -1 -4128 -1 -4200 19 -58 16 -78 27 -103 56
-17 20 -53 48 -79 62 -43 24 -52 35 -72 86 -12 33 -31 69 -42 80 -10 12 -25
32 -32 46 -12 21 -14 836 -17 5225 -2 2860 0 5223 3 5252 5 38 17 68 46 110
21 32 39 64 39 71 0 32 36 85 76 112 23 17 45 38 49 48 12 35 51 50 186 70
132 20 183 20 3105 21 l2971 1 24 -26z m541 -339 c15 -24 44 -54 67 -67 22
-13 46 -36 52 -51 13 -30 76 -87 96 -87 7 0 20 -12 30 -27 26 -43 66 -84 89
-93 12 -5 35 -28 50 -51 16 -24 47 -55 68 -70 21 -14 51 -43 65 -65 15 -21 44
-50 65 -65 22 -14 51 -44 65 -65 15 -21 46 -51 68 -67 23 -15 52 -45 64 -66
12 -21 39 -48 60 -60 21 -12 51 -41 66 -64 16 -22 46 -53 67 -68 21 -14 51
-43 65 -65 15 -21 44 -50 65 -65 22 -14 51 -43 65 -65 15 -21 44 -50 65 -65
21 -14 45 -39 54 -55 22 -43 43 -64 85 -85 20 -11 37 -25 37 -31 0 -22 52 -79
91 -98 21 -11 39 -26 39 -32 0 -20 50 -78 83 -94 18 -9 35 -21 39 -27 11 -17
-14 -57 -41 -65 -14 -4 -298 -7 -631 -7 -623 0 -734 6 -803 42 -54 28 -145
132 -163 187 -9 28 -27 66 -41 84 -13 17 -33 58 -44 89 -18 53 -19 88 -19 632
0 512 5 663 25 719 8 23 30 11 57 -33z"/>
<path d="M7519 11877 c-85 -31 -142 -71 -216 -151 -73 -80 -135 -200 -164
-321 -26 -106 -31 -302 -10 -400 41 -189 149 -366 274 -448 237 -156 514 -89
683 165 96 144 140 315 131 508 -3 63 -13 144 -22 180 -37 141 -133 305 -223
380 -20 17 -70 48 -111 68 -68 34 -82 37 -175 40 -86 2 -111 -1 -167 -21z
m194 -321 c47 -19 110 -96 136 -163 85 -223 12 -519 -144 -579 -43 -16 -45
-16 -90 6 -54 26 -104 89 -136 170 -31 78 -38 263 -14 345 23 81 57 144 97
182 54 52 95 63 151 39z"/>
<path d="M11966 11880 c-190 -67 -334 -249 -393 -495 -25 -106 -23 -296 6
-410 98 -398 426 -601 731 -453 96 46 203 158 257 268 23 47 52 119 63 160 27
95 37 278 21 379 -38 243 -166 439 -345 527 -74 36 -86 39 -180 42 -82 2 -112
-1 -160 -18z m201 -331 c111 -53 182 -264 154 -449 -22 -144 -97 -261 -185
-290 -34 -11 -42 -10 -84 12 -55 28 -104 93 -134 175 -30 81 -37 258 -13 339
40 137 121 232 199 234 11 0 39 -10 63 -21z"/>
<path d="M8788 10090 c-94 -28 -143 -97 -136 -191 5 -70 41 -122 102 -150 39
-18 89 -19 1166 -19 1070 0 1127 1 1165 19 146 66 149 258 4 331 -37 20 -63
20 -1156 19 -615 0 -1130 -4 -1145 -9z"/>
</g>
</svg>
