<svg width="30" height="30" viewBox="0 0 30 30" fill="none" xmlns="http://www.w3.org/2000/svg">
<path d="M0.978516 0.0820513C0.861328 0.128926 0.726562 0.193379 0.679688 0.228536C0.527344 0.357442 0.410156 0.691426 0.410156 0.990254C0.410156 1.23635 2.87695 12.4512 2.94141 12.5098C2.95898 12.5274 14.9121 14.6016 16.3652 14.8418C16.7754 14.9121 17.1094 14.9824 17.1094 15C17.1094 15.0176 16.7754 15.0879 16.3652 15.1582C14.9062 15.3985 2.95898 17.4727 2.94141 17.4903C2.87695 17.5488 0.410156 28.7637 0.410156 29.0098C0.410156 29.7012 0.925781 30.1172 1.57617 29.9414C1.875 29.8594 29.1035 15.9082 29.2852 15.7383C29.502 15.5449 29.5898 15.3281 29.5898 15C29.5898 14.6719 29.502 14.4551 29.2852 14.2617C29.1152 14.1035 1.89258 0.140645 1.59375 0.0586138C1.31836 -0.0175581 1.25391 -0.0116987 0.978516 0.0820513Z" fill="#3E88EF"/>
</svg>
